# xmcd
#
# Track frame offsets: 
#        150
#        15335
#        32472
#        53274
#        79785
#        100239
#        117317
#        143875
#        162708
#        178659
#        204536
#
# Disc length: 3044 seconds
#
# Revision: 0
# Processed by: cddbd v1.5.2PL0 Copyright (c) Steve Scherf et al.
# Submitted via: ExactAudioCopy v1.3
#
DISCID=860be20b
DTITLE=The Chuck Alvarez Band - Endangered Species
DYEAR=2009
DGENRE=Electric Blues
TTITLE0=Love Is Good
TTITLE1=Long Haul
TTITLE2=I Made My Angel
TTITLE3=Roll On
TTITLE4=Where Is Paradise
TTITLE5=Run With Me
TTITLE6=Losing My Shadow
TTITLE7=I Want To Know You
TTITLE8=Run The Risk
TTITLE9=Suzy Q
TTITLE10=When My Train Comes In
EXTD=
EXTT0=
EXTT1=
EXTT2=
EXTT3=
EXTT4=
EXTT5=
EXTT6=
EXTT7=
EXTT8=
EXTT9=
EXTT10=
PLAYORDER=
